<svg xmlns="http://www.w3.org/2000/svg">
<symbol id="menu" viewBox="0 0 24 24"><path d="M4 7h16M4 12h16M4 17h16" fill="none" stroke="currentColor" stroke-width="2" stroke-linecap="round"/></symbol>
<symbol id="tools" viewBox="0 0 24 24"><path d="M5 6h14M5 12h14M5 18h14M9 4v4M15 10v4M11 16v4" fill="none" stroke="currentColor" stroke-width="2" stroke-linecap="round"/></symbol>
<symbol id="home" viewBox="0 0 24 24"><path d="M3 11.5 12 4l9 7.5V20h-6v-5H9v5H3z" fill="none" stroke="currentColor" stroke-width="1.8" stroke-linejoin="round"/></symbol>
<symbol id="rail" viewBox="0 0 24 24"><path d="M7 3h10l2 14H5L7 3Zm-1 7h12M8 17l-3 4M16 17l3 4M8 21h8" fill="none" stroke="currentColor" stroke-width="1.8" stroke-linecap="round" stroke-linejoin="round"/></symbol>
<symbol id="warning" viewBox="0 0 24 24"><path d="M12 3 22 20H2L12 3Z" fill="none" stroke="currentColor" stroke-width="1.8"/><path d="M12 9v5m0 3h.01" stroke="currentColor" stroke-width="2" stroke-linecap="round"/></symbol>
<symbol id="pin" viewBox="0 0 24 24"><path d="M12 21s7-6.1 7-12a7 7 0 1 0-14 0c0 5.9 7 12 7 12Z" fill="none" stroke="currentColor" stroke-width="1.8"/><circle cx="12" cy="9" r="2.5" fill="none" stroke="currentColor" stroke-width="1.8"/></symbol>
<symbol id="chart" viewBox="0 0 24 24"><path d="M4 20V10h4v10M10 20V4h4v16M16 20v-7h4v7M3 20h18" fill="none" stroke="currentColor" stroke-width="1.8" stroke-linejoin="round"/></symbol>
<symbol id="report" viewBox="0 0 24 24"><path d="M6 3h9l3 3v15H6zM9 10h6M9 14h6M9 18h4" fill="none" stroke="currentColor" stroke-width="1.8" stroke-linecap="round" stroke-linejoin="round"/></symbol>
<symbol id="users" viewBox="0 0 24 24"><circle cx="12" cy="8" r="3.5" fill="none" stroke="currentColor" stroke-width="1.8"/><path d="M5 20c.7-4 3-6 7-6s6.3 2 7 6" fill="none" stroke="currentColor" stroke-width="1.8" stroke-linecap="round"/></symbol>
<symbol id="settings" viewBox="0 0 24 24"><circle cx="12" cy="12" r="3" fill="none" stroke="currentColor" stroke-width="1.8"/><path d="M12 2v3m0 14v3M2 12h3m14 0h3M4.9 4.9 7 7m10 10 2.1 2.1M19.1 4.9 17 7M7 17l-2.1 2.1" fill="none" stroke="currentColor" stroke-width="1.8" stroke-linecap="round"/></symbol>
<symbol id="backup" viewBox="0 0 24 24"><path d="M12 3v12m0 0-4-4m4 4 4-4M4 18v3h16v-3" fill="none" stroke="currentColor" stroke-width="1.8" stroke-linecap="round" stroke-linejoin="round"/></symbol>
<symbol id="camera" viewBox="0 0 24 24"><path d="M4 7h4l1.5-2h5L16 7h4v13H4z" fill="none" stroke="currentColor" stroke-width="1.8" stroke-linejoin="round"/><circle cx="12" cy="13" r="3.5" fill="none" stroke="currentColor" stroke-width="1.8"/></symbol>
<symbol id="signature" viewBox="0 0 24 24"><path d="m4 18 4-.7L19 6.3 16.7 4 5.6 15 4 18Zm10-12 2.3 2.3M10 20h10" fill="none" stroke="currentColor" stroke-width="1.8" stroke-linecap="round" stroke-linejoin="round"/></symbol>
<symbol id="map" viewBox="0 0 24 24"><path d="m3 6 6-3 6 3 6-3v15l-6 3-6-3-6 3V6Zm6-3v15m6-12v15" fill="none" stroke="currentColor" stroke-width="1.8" stroke-linejoin="round"/></symbol>
<symbol id="plus" viewBox="0 0 24 24"><path d="M12 5v14M5 12h14" fill="none" stroke="currentColor" stroke-width="2" stroke-linecap="round"/></symbol>
<symbol id="check" viewBox="0 0 24 24"><path d="m5 12 4 4 10-10" fill="none" stroke="currentColor" stroke-width="2" stroke-linecap="round" stroke-linejoin="round"/></symbol>
<symbol id="search" viewBox="0 0 24 24"><circle cx="11" cy="11" r="6.5" fill="none" stroke="currentColor" stroke-width="1.9"/><path d="m16 16 4.5 4.5" fill="none" stroke="currentColor" stroke-width="1.9" stroke-linecap="round"/></symbol>
</svg>
